
<svg xmlns="http://www.w3.org/2000/svg" viewBox="0 0 293.54 55.01"><path d="M5.9,4.46l12.67,36L33.63,2,47.88,40.47l14-36h5.9L47.67,55,33.55,16.56,18.43,55,0,4.46Z"/><path d="M95.4,44.86a17.87,17.87,0,0,1-3.67,4.82,14.5,14.5,0,0,1-9.94,3.67C74.59,53.36,67,48.82,67,37.73c0-8.93,5.47-15.84,14.47-15.84a13.37,13.37,0,0,1,11.3,5.47c1.87,2.66,3,7.27,2.81,11.23H72.36c.07,6.19,4.32,10.15,9.5,10.15A9.09,9.09,0,0,0,88,46.59a11.92,11.92,0,0,0,3.1-4.1ZM90.29,34.27c-.86-4.68-4.39-7.78-8.78-7.78a9.08,9.08,0,0,0-8.78,7.78Z"/><path d="M107.28,52.49H102.1V0h5.18V26.79a12.85,12.85,0,0,1,10.22-4.9c9.36,0,14.54,7.78,14.54,15.84s-5.26,15.63-14.33,15.63a12.69,12.69,0,0,1-10.44-5Zm19.44-14.76c0-7.34-5-11.23-9.79-11.23s-9.94,4-9.94,11.16c0,6.12,3.89,11.09,10,11.09S126.72,43.71,126.72,37.73Z"/><path d="M161.42,0h5.18V52.49h-5.18V48.32a12.6,12.6,0,0,1-10.22,5c-7.56,0-14.54-5.33-14.54-15.84,0-10.3,6.91-15.62,14.54-15.62a12.36,12.36,0,0,1,10.22,5ZM142,37.52c0,6.41,3.6,11.23,9.79,11.23s9.94-5.26,9.94-11.16c0-7.7-5.33-11.09-9.94-11.09C146.66,26.5,142,30.24,142,37.52Z"/><path d="M201.46,44.86a17.89,17.89,0,0,1-3.67,4.82,14.51,14.51,0,0,1-9.94,3.67c-7.2,0-14.76-4.54-14.76-15.63,0-8.93,5.47-15.84,14.47-15.84a13.37,13.37,0,0,1,11.31,5.47c1.87,2.66,3,7.27,2.81,11.23H178.41c.07,6.19,4.32,10.15,9.5,10.15A9.09,9.09,0,0,0,194,46.59a11.92,11.92,0,0,0,3.1-4.1Zm-5.11-10.58c-.86-4.68-4.39-7.78-8.79-7.78a9.08,9.08,0,0,0-8.78,7.78Z"/><path d="M208.15,22.61h5.18v3.46a10.54,10.54,0,0,1,8.57-4.18,10.14,10.14,0,0,1,8.57,4.1c1.51,2.23,1.73,4.68,1.73,8V52.49H227V34.13a8.78,8.78,0,0,0-1.37-5.47,5.86,5.86,0,0,0-4.9-2.16,6.53,6.53,0,0,0-5.26,2.3c-2,2.38-2.16,5.9-2.16,8.06V52.49h-5.18Z"/><path d="M243.14,7.63a3.67,3.67,0,1,1-3.67,3.67A3.69,3.69,0,0,1,243.14,7.63Zm2.59,15V52.49h-5.18V22.61Z"/><path d="M254.08,22.61h5.18v3.17a8.68,8.68,0,0,1,7.42-3.89,8.94,8.94,0,0,1,8.14,4.82,10,10,0,0,1,9-4.82c8.86,0,9.72,7.42,9.72,11.67V52.49h-5.18V34.35c0-3.38-.43-7.85-5.33-7.85-6,0-6.62,5.76-6.62,9.36V52.49h-5.18V34.78c0-2.09.07-8.28-5.4-8.28-5.91,0-6.55,6.12-6.55,9.72V52.49h-5.18Z"/></svg>